<?xml version="1.0" encoding="utf-8"?>
<svg version="1.1" x="0px" y="0px" viewBox="0 0 100 125" style="enable-background:new 0 0 100 100;" xmlns="http://www.w3.org/2000/svg">
  <path d="M50,99.4c-2.4,0-4.1-2.2-5.7-4.1c-0.9-1.1-2-2.6-2.7-2.7c-0.7-0.2-2.4,0.8-3.7,1.5c-2.2,1.2-4.5,2.5-6.7,1.6  c-2.2-0.9-2.9-3.5-3.6-5.9c-0.4-1.3-0.9-3.2-1.5-3.6c-0.6-0.4-2.5-0.2-3.9,0c-2.5,0.3-5.2,0.6-6.8-1.1c-1.7-1.7-1.4-4.3-1.1-6.8  c0.2-1.4,0.4-3.3,0-3.9c-0.4-0.6-2.2-1.1-3.6-1.5c-2.5-0.7-5-1.4-5.9-3.6c-0.9-2.2,0.4-4.5,1.6-6.7C7,61.2,8,59.5,7.8,58.8  c-0.1-0.7-1.6-1.9-2.7-2.7C3.2,54.5,1,52.8,1,50.4s2.2-4.1,4.1-5.7c1.1-0.9,2.6-2,2.7-2.7C8,41.2,7,39.5,6.3,38.3  c-1.2-2.2-2.5-4.5-1.6-6.7c0.9-2.2,3.5-2.9,5.9-3.6c1.3-0.4,3.2-0.9,3.6-1.5c0.4-0.6,0.2-2.5,0-3.9c-0.3-2.5-0.6-5.2,1.1-6.8  c1.7-1.7,4.3-1.4,6.8-1.1c1.4,0.2,3.3,0.4,3.9,0c0.6-0.4,1.1-2.2,1.5-3.6c0.7-2.5,1.4-5,3.6-5.9c2.2-0.9,4.5,0.4,6.7,1.6  c1.2,0.7,2.9,1.6,3.7,1.5c0.7-0.1,1.9-1.6,2.7-2.7c1.5-1.9,3.3-4.1,5.7-4.1s4.1,2.2,5.7,4.1c0.9,1.1,2,2.6,2.7,2.7  c0.8,0.2,2.4-0.8,3.7-1.5c2.2-1.2,4.5-2.5,6.7-1.6C71,6,71.7,8.6,72.4,11c0.4,1.3,0.9,3.2,1.5,3.6c0.6,0.4,2.5,0.2,3.9,0  c2.5-0.3,5.2-0.6,6.8,1.1c1.7,1.7,1.4,4.3,1.1,6.8c-0.2,1.4-0.4,3.3,0,3.9c0.4,0.6,2.2,1.1,3.6,1.5c2.5,0.7,5,1.4,5.9,3.6  c0.9,2.2-0.4,4.5-1.6,6.7C93,39.5,92,41.2,92.2,42c0.1,0.7,1.6,1.9,2.7,2.7c1.9,1.5,4.1,3.3,4.1,5.7s-2.2,4.1-4.1,5.7  c-1.1,0.9-2.6,2-2.7,2.7c-0.1,0.7,0.8,2.4,1.5,3.7c1.2,2.2,2.5,4.5,1.6,6.7c-0.9,2.2-3.5,2.9-5.9,3.6c-1.3,0.4-3.2,0.9-3.6,1.5  c-0.4,0.6-0.2,2.5,0,3.9c0.3,2.5,0.6,5.2-1.1,6.8c-1.7,1.7-4.3,1.4-6.8,1.1c-1.4-0.2-3.3-0.4-3.9,0c-0.6,0.4-1.1,2.2-1.5,3.6  c-0.7,2.5-1.4,5-3.6,5.9c-2.2,0.9-4.5-0.4-6.7-1.6c-1.2-0.7-2.9-1.6-3.7-1.5c-0.7,0.1-1.9,1.6-2.7,2.7C54.1,97.2,52.4,99.4,50,99.4z   M41.5,89.1c0.3,0,0.6,0,0.8,0.1c1.9,0.4,3.4,2.2,4.8,4c0.9,1.1,2.2,2.8,2.9,2.8s2.1-1.7,2.9-2.8c1.4-1.8,2.8-3.6,4.8-4  c2-0.4,4.1,0.7,6.1,1.9c1.1,0.6,3,1.7,3.6,1.4c0.6-0.3,1.2-2.3,1.6-3.7c0.6-2.2,1.3-4.4,2.9-5.5c1.7-1.1,4-0.9,6.3-0.6  c1.3,0.1,3.5,0.4,4-0.1c0.5-0.5,0.2-2.7,0.1-4c-0.3-2.3-0.5-4.6,0.6-6.3c1.1-1.7,3.4-2.3,5.5-2.9c1.4-0.4,3.4-1,3.7-1.6  c0.2-0.6-0.8-2.5-1.4-3.6c-1.1-2-2.3-4.1-1.9-6.1c0.4-1.9,2.2-3.4,4-4.8c1.1-0.9,2.8-2.2,2.8-2.9s-1.7-2.1-2.8-2.9  c-1.8-1.4-3.6-2.8-4-4.8c-0.4-2,0.7-4.1,1.9-6.1c0.6-1.1,1.7-3,1.4-3.6c-0.3-0.6-2.3-1.2-3.7-1.6c-2.2-0.6-4.4-1.3-5.5-2.9  c-1.1-1.7-0.9-4-0.6-6.3c0.1-1.3,0.4-3.5-0.1-4c-0.5-0.5-2.7-0.2-4-0.1c-2.3,0.3-4.6,0.5-6.3-0.6c-1.7-1.1-2.3-3.4-2.9-5.5  c-0.4-1.4-1-3.4-1.6-3.7c-0.6-0.2-2.5,0.8-3.6,1.4c-2,1.1-4.1,2.3-6.1,1.9c-1.9-0.4-3.4-2.2-4.8-4c-0.9-1.1-2.2-2.8-2.9-2.8  s-2.1,1.7-2.9,2.8c-1.4,1.8-2.8,3.6-4.8,4c-2,0.4-4.1-0.7-6.1-1.9c-1.1-0.6-3-1.7-3.6-1.4c-0.6,0.3-1.2,2.3-1.6,3.7  c-0.6,2.2-1.3,4.4-2.9,5.5c-1.7,1.1-4,0.9-6.3,0.6c-1.3-0.1-3.5-0.4-4,0.1c-0.5,0.5-0.2,2.7-0.1,4c0.3,2.3,0.5,4.6-0.6,6.3  c-1.1,1.7-3.4,2.3-5.5,2.9c-1.4,0.4-3.4,1-3.7,1.6c-0.2,0.6,0.8,2.5,1.4,3.6c1.1,2,2.3,4.1,1.9,6.1c-0.4,1.9-2.2,3.4-4,4.8  c-1.1,0.9-2.8,2.2-2.8,2.9s1.7,2.1,2.8,2.9c1.8,1.4,3.6,2.8,4,4.8c0.4,2-0.7,4.1-1.9,6.1c-0.6,1.1-1.7,3-1.4,3.6  c0.3,0.6,2.3,1.2,3.7,1.6c2.2,0.6,4.4,1.3,5.5,2.9c1.1,1.7,0.9,4,0.6,6.3c-0.1,1.3-0.4,3.5,0.1,4c0.5,0.5,2.7,0.2,4,0.1  c2.3-0.3,4.6-0.5,6.3,0.6c1.7,1.1,2.3,3.4,2.9,5.5c0.4,1.4,1,3.4,1.6,3.7c0.6,0.3,2.5-0.8,3.6-1.4C37.9,90,39.7,89.1,41.5,89.1z"/>
  <path d="M28.9,64.2c-0.5,0-0.9,0.4-0.9,0.9v6.7c0,0.5,0.4,0.9,0.9,0.9h6.4c0.5,0,0.9-0.4,0.9-0.9v-6.7  c0-0.5-0.4-0.9-0.9-0.9H28.9z"/>
  <path d="M40.5,59.8c-0.5,0-0.9,0.4-0.9,0.9v11.1c0,0.5,0.4,0.9,0.9,0.9h6.4c0.5,0,0.9-0.4,0.9-0.9V60.7  c0-0.5-0.4-0.9-0.9-0.9H40.5z"/>
  <path d="M52.4,54.3c-0.5,0-0.9,0.4-0.9,0.9v16.6c0,0.5,0.4,0.9,0.9,0.9h6.4c0.5,0,0.9-0.4,0.9-0.9V55.2  c0-0.5-0.4-0.9-0.9-0.9H52.4z"/>
  <path d="M71.1,46.8h-6.4c-0.5,0-0.9,0.4-0.9,0.9v24c0,0.5,0.4,0.9,0.9,0.9h6.4c0.5,0,0.9-0.4,0.9-0.9v-24  C72,47.3,71.6,46.8,71.1,46.8z"/>
  <path d="M71.5,41l-3.1-12.4c0-0.2-0.2-0.3-0.3-0.4c-0.2-0.1-0.3-0.1-0.5,0L55,32.6c-0.2,0.1-0.4,0.3-0.4,0.5  c0,0.2,0.1,0.5,0.3,0.6l3.6,1.8c-3,4.4-12.3,16.5-29.7,22.2c-0.3,0.1-0.5,0.4-0.4,0.7c0.1,0.3,0.3,0.5,0.6,0.5c0,0,0.1,0,0.1,0  c0.3,0,25.8-4.9,37.2-19.5l4.3,2.2c0.2,0.1,0.5,0.1,0.7-0.1C71.5,41.4,71.6,41.2,71.5,41z"/>
</svg>